<?xml version="1.0" encoding="UTF-8" standalone="no"?>
<!-- Created with Inkscape (http://www.inkscape.org/) -->

<svg
    height="512"
    id="svg1"
    inkscape:version="1.3.2 (091e20ef0f, 2023-11-25, custom)"
    sodipodi:docname="EEDU.svg"
    version="1.1"
    viewBox="0 0 512 512"
    width="512"
    xmlns="http://www.w3.org/2000/svg"
    xmlns:inkscape="http://www.inkscape.org/namespaces/inkscape"
    xmlns:sodipodi="http://sodipodi.sourceforge.net/DTD/sodipodi-0.dtd"
    xmlns:xlink="http://www.w3.org/1999/xlink"
>
    <sodipodi:namedview
        bordercolor="#000000"
        borderopacity="0.25"
        id="namedview1"
        inkscape:current-layer="svg1"
        inkscape:cx="151.89617"
        inkscape:cy="324.48866"
        inkscape:deskcolor="#d1d1d1"
        inkscape:document-units="px"
        inkscape:pagecheckerboard="0"
        inkscape:pageopacity="0.0"
        inkscape:showpageshadow="2"
        inkscape:window-height="1368"
        inkscape:window-maximized="1"
        inkscape:window-width="3440"
        inkscape:window-x="0"
        inkscape:window-y="0"
        inkscape:zoom="1.3528978"
        pagecolor="#ffffff"
        showgrid="false">
        <inkscape:grid
            color="#0099e5"
            dotted="false"
            empcolor="#0099e5"
            empopacity="0.30196078"
            empspacing="5"
            gridanglex="30"
            gridanglez="30"
            id="grid12"
            opacity="0.14901961"
            originx="0"
            originy="0"
            spacingx="1"
            spacingy="1"
            units="px"
            visible="false"/>
    </sodipodi:namedview>
    <defs
        id="defs1">
        <linearGradient
            id="swatch19"
            inkscape:swatch="solid">
            <stop
                id="stop19"
                offset="0"
                style="stop-color:#dddddd;stop-opacity:1;"/>
        </linearGradient>
        <linearGradient
            id="swatch8"
            inkscape:swatch="solid">
            <stop
                id="stop8"
                offset="0"
                style="stop-color:#000000;stop-opacity:1;"/>
        </linearGradient>
        <linearGradient
            id="linearGradient10"
            inkscape:collect="always">
            <stop
                id="stop11"
                offset="0"
                style="stop-color:#002aff;stop-opacity:1;"/>
            <stop
                id="stop12"
                offset="1"
                style="stop-color:#0025e2;stop-opacity:0;"/>
        </linearGradient>
        <linearGradient
            id="swatch6"
            inkscape:swatch="solid">
            <stop
                id="stop6"
                offset="0"
                style="stop-color:#0025e2;stop-opacity:1;"/>
        </linearGradient>
        <filter
            height="100"
            id="mask-powermask-path-effect4_inverse"
            inkscape:label="filtermask-powermask-path-effect4"
            style="color-interpolation-filters:sRGB"
            width="100"
            x="-50"
            y="-50">
            <feColorMatrix
                id="mask-powermask-path-effect4_primitive1"
                result="fbSourceGraphic"
                type="saturate"
                values="1"/>
            <feColorMatrix
                id="mask-powermask-path-effect4_primitive2"
                in="fbSourceGraphic"
                values="-1 0 0 0 1 0 -1 0 0 1 0 0 -1 0 1 0 0 0 1 0 "/>
        </filter>
        <mask
            id="mask6"
            maskUnits="userSpaceOnUse">
            <rect
                height="434.52374"
                id="rect6"
                ry="98.621941"
                style="fill:#eeeefa;fill-opacity:1;stroke-width:1.08138"
                width="503.90704"
                x="3"
                y="53"/>
        </mask>
        <linearGradient
            gradientUnits="userSpaceOnUse"
            id="linearGradient12"
            inkscape:collect="always"
            x1="22.819838"
            x2="496.25397"
            xlink:href="#linearGradient10"
            y1="248.69112"
            y2="248.69112"/>
        <mask
            id="mask15"
            maskUnits="userSpaceOnUse">
            <path
                d="m 107.35492,492.42064 c 0,0 -60.873855,-10.69308 -82.741162,-71.28717 C 2.7464504,360.53938 6.2925002,117.65382 6.2925002,117.65382 L -86.495802,399.23813 0.97342551,500.56775 Z"
                id="path15"
                style="display:inline;fill:#eeeefa;fill-opacity:1;stroke:none;stroke-width:5.48783;stroke-dasharray:none;stroke-opacity:1"/>
        </mask>
    </defs>
    <g
        id="layer1"
        inkscape:groupmode="layer"
        inkscape:label="source"
        style="display:inline;opacity:1"
        transform="matrix(1.0014606,0,0,1.0014606,1.4508846,13.401856)">
        <rect
            height="413.93274"
            id="rect1-1"
            inkscape:label="background"
            rx="87.398895"
            ry="93.948486"
            style="display:none;fill:#222d65;fill-opacity:1;stroke-width:0.884417;stroke-dasharray:none"
            transform="matrix(0.72644119,0.68722863,-0.68807367,0.72564084,0,0)"
            width="413.60318"
            x="143.71831"
            y="-206.04222"/>
        <path
            d="m 407.94986,105.1571 c 0,0 105.9029,52.20565 115.59823,236.41701 9.69534,184.21137 -23.86544,204.34783 -23.86544,204.34783 l -286.38528,0.7458 c 0,0 -217.0263452,-109.63187 -190.92352,-284.89369 19.92208,-133.76253 89.4954,-155.87116 89.4954,-155.87116 z"
            id="path3"
            inkscape:label="shadow"
            mask="url(#mask6)"
            sodipodi:nodetypes="csccscc"
            style="display:none;fill:#000c4e;fill-opacity:1;stroke:none;stroke-width:1.00019;stroke-dasharray:none;stroke-opacity:1"
            transform="matrix(0.59625759,0.56407221,-0.65546751,0.69125445,278.78068,-89.599324)"/>
    </g>
    <path
        d="M 311.43951,24.938073 C 294.98646,9.3148661 273.51783,1.6028189 247.0321,1.8044994 220.67015,1.8751574 192.4769,9.6541621 162.45569,25.13951 132.55826,40.493857 104.73781,61.797275 78.993561,89.048728 53.744387,115.77613 34.285522,144.52004 20.615756,175.28357 6.9459942,206.04711 0.72851622,234.69344 1.9650563,261.21919 3.2016135,287.74492 12.047646,308.81856 28.5007,324.44176 l 84.01126,79.77395 42.70072,-45.20067 -84.011244,-79.77397 C 61.96067,270.46639 57.734246,257.62901 58.520833,240.72924 59.307372,223.82947 63.909764,207.07499 72.331518,190.46606 80.989723,173.83311 89.571089,160.11059 98.0761,149.29727 L 232.63032,277.06492 275.33241,231.8628 140.77818,104.09515 c 11.51258,-9.697284 22.83392,-17.835475 33.966,-24.414424 20.0806,-11.751739 38.39769,-18.46581 54.95007,-20.146394 16.78885,-1.704603 29.80377,1.829738 39.04453,10.604428 l 84.01125,79.77395 42.70073,-45.20068 z m 87.52785,83.113177 -42.70074,45.20067 84.01268,79.77532 c 9.24076,8.77469 13.46717,21.61207 12.68061,38.51184 -0.77548,16.66176 -6.46981,35.36196 -17.08427,56.10236 -5.94821,11.50134 -13.43912,23.27677 -22.47243,35.32827 L 278.84898,235.20203 236.14691,280.40415 370.70112,408.17182 c -10.3081,9.10119 -23.50946,18.43672 -39.60536,28.00711 -16.08483,9.33238 -32.52045,14.85049 -49.30928,16.55508 -16.78883,1.7046 -29.80377,-1.82975 -39.04454,-10.60443 l -84.01266,-79.77533 -42.70074,45.2007 84.01267,79.77531 c 16.45308,15.62323 37.92026,23.33387 64.40598,23.13221 26.48573,-0.20169 54.67897,-7.98068 84.57644,-23.33503 29.89742,-15.35433 57.47063,-36.39315 82.7198,-63.12057 25.74425,-27.25145 45.45037,-56.25995 59.1201,-87.02349 13.79354,-30.89454 20.01104,-59.54088 18.65071,-85.93562 -1.23654,-26.52572 -10.08115,-47.59798 -26.53423,-63.2212 z"
        id="text12"
        inkscape:label="element"
        style="font-size:509.228px;display:inline;fill:#213787;fill-opacity:1;stroke:none;stroke-width:6.61045;stroke-dasharray:none;stroke-opacity:1"/>
    <text
        id="text2"
        style="font-size:74.6667px;display:none;fill:#ffffff;fill-opacity:0.708465"
        x="36.517365"
        xml:space="preserve"
        y="284"><tspan
       id="tspan3"
       sodipodi:role="line"
       style="font-size:74.6667px"
       x="36.517365"
       y="284">ElementEDU</tspan></text>
</svg>
